Patient4_TMGait_0pt3_03_right_05_GRF.mot
version=1
nRows=52
nColumns=19
inDegrees=no
endheader
time	F1x	F1y	F1z	M1x	M1y	M1z	F2x	F2y	F2z	M2x	M2y	M2z	EC1x	EC1y	EC1z	EC2x	EC2y	EC2z
9.35	7.0805	671.4409	46.3702	-249.1389	-44.1869	670.942	10.1153	97.5241	-10.6999	33.8976	6.4497	84.0464	-0.0592	0.0182	-0.0073	-0.0462	0.0165	0.9585
9.3693	5.2191	686.3795	47.1276	-254.5104	-44.9531	684.4247	7.8762	85.3023	-9.6927	29.7825	6.0995	73.1129	-0.0592	0.0182	-0.0073	-0.0462	0.0165	0.9585
9.3886	3.1279	705.6971	48.4019	-261.459	-46.2695	701.9673	5.5341	71.7578	-8.4933	25.1647	5.6677	61.2064	-0.0592	0.0182	-0.0073	-0.0462	0.0165	0.9585
9.4079	0.90436	728.9735	50.2558	-269.8147	-48.206	723.1933	3.273	57.7368	-7.1363	20.3365	5.1319	49.0778	-0.0592	0.0182	-0.0073	-0.0462	0.0165	0.9585
9.4271	-1.3274	755.1974	52.6684	-279.1884	-50.7229	747.1244	1.304	44.0939	-5.6758	15.6029	4.4602	37.4357	-0.0592	0.0182	-0.0073	-0.0462	0.0165	0.9585
9.4464	-3.4123	782.7351	55.5328	-288.9646	-53.6713	772.1454	-0.16404	31.6306	-4.1876	11.2542	3.6352	26.9159	-0.0592	0.0182	-0.0073	-0.0462	0.0165	0.9585
9.4657	-5.163	809.3992	58.6654	-298.3315	-56.8064	796.0854	-0.99953	21.0134	-2.7726	7.5331	2.6847	18.0285	-0.0592	0.0182	-0.0073	-0.0462	0.0165	0.9585
9.485	-6.384	832.6168	61.8377	-306.3475	-59.828	816.4001	-1.2699	12.6671	-1.5481	4.5953	1.7197	11.0791	-0.0592	0.0182	-0.0073	-0.0462	0.0165	0.9585
9.5043	-6.899	849.7626	64.8049	-312.0673	-62.4216	830.5147	-1.1832	6.5965	-0.5959	2.449	0.87022	6.0278	-0.0592	0.0182	-0.0073	-0.0462	0.0165	0.9585
9.5236	-6.5786	858.6546	67.3139	-314.7213	-64.281	836.3144	-0.90811	2.4272	0.08265	0.96752	0.18838	2.5167	-0.0592	0.0182	-0.0073	-0.0462	0.0165	0.9585
9.5429	-5.3814	858.0117	69.1397	-313.88	-65.1591	832.5856	-0.56136	-0.38218	0.52658	-0.037828	-0.32302	0.055448	-0.0592	0.0182	-0.0073	-0.0462	0.0165	0.9585
9.5621	-3.3448	847.8127	70.1124	-309.5797	-64.8936	819.3436	-0.21247	-2.3889	0.79155	-0.7636	-0.68944	-1.8452	-0.0592	0.0182	-0.0073	-0.0462	0.0165	0.9585
9.5814	-0.54201	829.474	70.1349	-302.3821	-63.4109	797.9714	0.10153	-4.058	0.93323	-1.3754	-0.94546	-3.5822	-0.0592	0.0182	-0.0073	-0.0462	0.0165	0.9585
9.6007	2.9595	805.6686	69.222	-293.3022	-60.7474	771.0183	0.35773	-5.6868	0.99539	-1.9793	-1.1185	-5.3941	-0.0592	0.0182	-0.0073	-0.0462	0.0165	0.9585
9.62	7.1287	779.8342	67.5242	-283.6203	-57.0589	741.724	0.53774	-7.3391	1.0031	-2.5973	-1.2187	-7.2894	-0.0592	0.0182	-0.0073	-0.0462	0.0165	0.9585
9.6393	11.9566	755.5161	65.3059	-274.6359	-52.6052	713.4196	0.61905	-8.7876	0.95911	-3.147	-1.2316	-8.9794	-0.0592	0.0182	-0.0073	-0.0462	0.0165	0.9585
9.6586	17.4055	735.6473	62.8847	-267.4078	-47.7079	688.8752	0.56984	-9.4525	0.84081	-3.4169	-1.1137	-9.82	-0.0592	0.0182	-0.0073	-0.0462	0.0165	0.9585
9.6779	23.3756	721.9171	60.5566	-262.5217	-42.6952	669.7384	0.34743	-8.3525	0.60758	-3.0485	-0.7989	-8.7531	-0.0592	0.0182	-0.0073	-0.0462	0.0165	0.9585
9.6971	29.6592	714.3259	58.5302	-259.9315	-37.8581	656.1638	-0.099907	-4.0834	0.20748	-1.5291	-0.19897	-4.2723	-0.0592	0.0182	-0.0073	-0.0462	0.0165	0.9585
9.7164	35.8958	711.0644	56.895	-258.9224	-33.4383	646.7308	-0.82487	5.1333	-0.41668	1.791	0.7873	5.521	-0.0592	0.0182	-0.0073	-0.0462	0.0165	0.9585
9.7357	41.6011	708.8598	55.6125	-258.2465	-29.6109	638.7591	-1.8618	21.2766	-1.3144	7.6382	2.2444	22.7296	-0.0592	0.0182	-0.0073	-0.0462	0.0165	0.9585
9.755	46.2326	703.6881	54.5246	-256.3922	-26.4663	628.9274	-3.1985	46.1685	-2.5023	16.6882	4.1997	49.2921	-0.0592	0.0182	-0.0073	-0.0462	0.0165	0.9585
9.7743	49.2792	691.6372	53.3977	-251.9042	-24.0166	614.0022	-4.7594	80.8892	-3.9351	29.3537	6.5829	86.3547	-0.0592	0.0182	-0.0073	-0.0462	0.0165	0.9585
9.7936	50.4036	669.8102	51.9732	-243.7207	-22.1834	591.5786	-6.6706	125.1346	-5.5188	45.5458	9.3253	133.5676	-0.0592	0.0182	-0.0073	-0.0462	0.0165	0.9585
9.8129	49.5747	637.0763	50.0042	-231.4519	-20.7768	560.6921	-9.684	176.9173	-7.4228	64.527	12.847	188.8212	-0.0592	0.0182	-0.0073	-0.0462	0.0165	0.9585
9.8321	47.1	594.3135	47.3459	-215.4678	-19.5562	522.0118	-14.2198	232.7744	-10.1692	84.9736	17.8094	248.4634	-0.0592	0.0182	-0.0073	-0.0462	0.0165	0.9585
9.8514	43.5411	544.1063	44.0409	-196.7669	-18.3251	477.5714	-19.7826	289.1915	-13.854	105.5545	24.0971	308.7167	-0.0592	0.0182	-0.0073	-0.0462	0.0165	0.9585
9.8707	39.5384	489.9588	40.2793	-176.6794	-16.965	430.1473	-25.6358	343.7669	-18.1434	125.3834	31.0796	366.9489	-0.0592	0.0182	-0.0073	-0.0462	0.0165	0.9585
9.89	35.5962	435.26	36.2632	-156.4844	-15.4137	382.4456	-31.1712	394.7215	-22.4409	143.8359	37.9098	421.2122	-0.0592	0.0182	-0.0073	-0.0462	0.0165	0.9585
9.9093	31.9731	382.606	32.1426	-137.1539	-13.6594	336.566	-35.869	440.534	-26.253	160.3863	43.8772	469.8267	-0.0592	0.0182	-0.0073	-0.0462	0.0165	0.9585
9.9286	28.7243	333.7051	28.0318	-119.3145	-11.746	293.9194	-39.3289	480.2022	-29.3548	174.6856	48.5909	511.6498	-0.0592	0.0182	-0.0073	-0.0462	0.0165	0.9585
9.9479	25.7787	289.5191	24.05	-103.3018	-9.7805	255.3248	-41.3677	513.4445	-31.707	186.6349	51.9408	546.3153	-0.0592	0.0182	-0.0073	-0.0462	0.0165	0.9585
9.9671	23.0181	250.4041	20.3254	-89.2182	-7.906	221.1018	-42.0139	540.7273	-33.369	196.3986	54.0051	574.2611	-0.0592	0.0182	-0.0073	-0.0462	0.0165	0.9585
9.9864	20.3388	216.2412	16.9655	-76.9867	-6.253	191.1641	-41.4314	563.1593	-34.4894	204.3677	55.003	596.6172	-0.0592	0.0182	-0.0073	-0.0462	0.0165	0.9585
10.0057	17.6824	186.5618	14.0295	-66.4064	-4.9012	165.119	-39.8341	582.2006	-35.2711	211.0598	55.2264	614.9	-0.0592	0.0182	-0.0073	-0.0462	0.0165	0.9585
10.025	15.0417	160.68	11.5268	-57.208	-3.8717	142.3791	-37.45	599.2757	-35.9181	216.9863	54.9719	630.6142	-0.0592	0.0182	-0.0073	-0.0462	0.0165	0.9585
10.0443	12.431	137.8435	9.4363	-49.1048	-3.1498	122.2933	-34.4969	615.4455	-36.5959	222.5382	54.4952	644.9148	-0.0592	0.0182	-0.0073	-0.0462	0.0165	0.9585
10.0636	9.8785	117.3867	7.7276	-41.8477	-2.707	104.2796	-31.1628	631.2468	-37.4082	227.9296	53.9855	658.4325	-0.0592	0.0182	-0.0073	-0.0462	0.0165	0.9585
10.0829	7.4288	98.8261	6.3672	-35.2577	-2.507	87.9085	-27.6019	646.7001	-38.3685	233.2043	53.5302	671.2729	-0.0592	0.0182	-0.0073	-0.0462	0.0165	0.9585
10.1021	5.1332	81.8805	5.317	-29.2312	-2.5045	72.9253	-23.9348	661.4681	-39.3828	238.2939	53.0917	683.1637	-0.0592	0.0182	-0.0073	-0.0462	0.0165	0.9585
10.1214	3.0349	66.4266	4.5249	-23.7233	-2.6431	59.2209	-20.2429	675.0753	-40.2923	243.0854	52.5534	693.6656	-0.0592	0.0182	-0.0073	-0.0462	0.0165	0.9585
10.1407	1.1707	52.4252	3.9138	-18.7223	-2.8472	46.7687	-16.5664	687.0925	-40.9431	247.4747	51.787	702.3571	-0.0592	0.0182	-0.0073	-0.0462	0.0165	0.9585
10.16	-0.41289	39.8901	3.3939	-14.2372	-3.0247	35.5966	-12.9267	697.3163	-41.2315	251.4204	50.7025	709.0255	-0.0592	0.0182	-0.0073	-0.0462	0.0165	0.9585
10.1793	-1.6331	28.885	2.8919	-10.2968	-3.0789	25.7787	-9.3775	705.8998	-41.1251	254.9829	49.2856	713.8243	-0.0592	0.0182	-0.0073	-0.0462	0.0165	0.9585
10.1986	-2.377	19.5035	2.3674	-6.9389	-2.9301	17.4099	-6.0596	713.3972	-40.6697	258.3371	47.6223	717.3457	-0.0592	0.0182	-0.0073	-0.0462	0.0165	0.9585
10.2179	-2.5686	11.8448	1.8182	-4.1997	-2.549	10.5843	-3.2386	720.756	-39.9725	261.7749	45.8975	720.6283	-0.0592	0.0182	-0.0073	-0.0462	0.0165	0.9585
10.2371	-2.2969	5.9935	1.2846	-2.1082	-2.0053	5.3773	-1.2514	729.2368	-39.1722	265.6883	44.3483	725.0546	-0.0592	0.0182	-0.0073	-0.0462	0.0165	0.9585
10.2564	-1.7895	1.9122	0.82571	-0.64874	-1.4341	1.7542	-0.37917	740.2473	-38.4084	270.5211	43.1913	732.1288	-0.0592	0.0182	-0.0073	-0.0462	0.0165	0.9585
10.2757	-1.225	-0.63976	0.47047	0.26497	-0.92625	-0.49893	-0.71504	755.0592	-37.7845	276.6779	42.5432	743.1571	-0.0592	0.0182	-0.0073	-0.0462	0.0165	0.9585
10.295	-0.70788	-2.0002	0.21905	0.75365	-0.52044	-1.6825	-2.1082	774.3657	-37.3651	284.3664	42.3975	758.7981	-0.0592	0.0182	-0.0073	-0.0462	0.0165	0.9585
10.3143	-0.28674	-2.5162	0.058733	0.94035	-0.22647	-2.1068	-4.2018	797.8116	-37.1937	293.4225	42.6564	778.6324	-0.0592	0.0182	-0.0073	-0.0462	0.0165	0.9585
10.3336	0.025426	-2.4931	-0.0282	0.93378	-0.036352	-2.0494	-6.5479	823.7952	-37.2999	303.2355	43.1814	801.0301	-0.0592	0.0182	-0.0073	-0.0462	0.0165	0.9585
